<svg xmlns="http://www.w3.org/2000/svg" width="580.83" height="87.77" xmlns:v="https://vecta.io/nano"><path d="M8.69 12.46v32.31h42.54v7.52H8.69v34.9H0V4.93h56.4v7.52H8.69zM72.61 0h8.34v87.18h-8.34V0zm87.31 25.38v61.8h-7.99V75.9c-2.19 3.76-5.21 6.68-9.05 8.75-3.84 2.08-8.22 3.11-13.16 3.11-8.07 0-14.43-2.25-19.09-6.76-4.66-4.5-6.99-11.1-6.99-19.8V25.38h8.34V60.4c0 6.5 1.6 11.44 4.82 14.8 3.21 3.37 7.79 5.05 13.75 5.05 6.5 0 11.63-1.98 15.39-5.93 3.76-3.96 5.64-9.46 5.64-16.51V25.38h8.34zm55.93 58.04c-1.57 1.41-3.51 2.49-5.82 3.23a23.56 23.56 0 0 1-7.23 1.12c-5.8 0-10.26-1.57-13.4-4.7-3.13-3.13-4.7-7.56-4.7-13.28V32.43h-11.05v-7.05h11.05V11.87h8.34v13.51h18.8v7.05h-18.8v36.89c0 3.68.92 6.48 2.76 8.4s4.48 2.88 7.93 2.88c1.72 0 3.39-.27 4.99-.82s3-1.33 4.17-2.35l2.94 5.99zm46.05 0c-1.57 1.41-3.51 2.49-5.82 3.23a23.56 23.56 0 0 1-7.23 1.12c-5.8 0-10.26-1.57-13.4-4.7-3.13-3.13-4.7-7.56-4.7-13.28V32.43H219.7v-7.05h11.05V11.87h8.34v13.51h18.8v7.05h-18.8v36.89c0 3.68.92 6.48 2.76 8.4s4.48 2.88 7.93 2.88c1.72 0 3.39-.27 4.99-.82s3-1.33 4.17-2.35l2.94 5.99zm66.74-24.55h-51.7c.47 6.42 2.94 11.61 7.4 15.57s10.1 5.93 16.92 5.93c3.84 0 7.36-.69 10.57-2.06s5.99-3.39 8.34-6.05l4.7 5.4c-2.74 3.29-6.17 5.8-10.28 7.52s-8.64 2.58-13.57 2.58c-6.34 0-11.97-1.35-16.86-4.05-4.9-2.7-8.71-6.44-11.46-11.22-2.74-4.78-4.11-10.18-4.11-16.21s1.31-11.44 3.94-16.21c2.62-4.78 6.23-8.5 10.81-11.16s9.73-4 15.45-4 10.85 1.33 15.39 4c4.54 2.66 8.11 6.37 10.69 11.1 2.58 4.74 3.88 10.16 3.88 16.27l-.12 2.59zm-44.83-21.09c-4.04 3.8-6.33 8.75-6.87 14.86h43.83c-.55-6.11-2.84-11.06-6.87-14.86-4.04-3.8-9.07-5.7-15.1-5.7s-10.95 1.9-14.98 5.7zm78.73-9.7c3.88-2.12 8.67-3.17 14.39-3.17v8.11l-2-.12c-6.5 0-11.59 2-15.28 5.99-3.68 4-5.52 9.6-5.52 16.8v31.49h-8.34v-61.8h7.99v12.1c1.96-4.15 4.88-7.28 8.75-9.4z" fill="#1fb7f8"/><path d="M429.12 67.85a16.67 16.67 0 0 1-11.83 4.9c-9.24 0-16.73-7.49-16.73-16.73s7.49-16.73 16.73-16.73a16.67 16.67 0 0 1 11.83 4.9l10.18-10.17a31.03 31.03 0 0 0-22.01-9.12c-17.19 0-31.12 13.93-31.12 31.12s13.93 31.12 31.12 31.12c8.59 0 16.38-3.48 22.01-9.12l-10.18-10.17zM549.7 24.9c-17.19 0-31.12 13.93-31.12 31.12h0v31.12h14.39V56.02h0c0-9.24 7.49-16.73 16.73-16.73s16.73 7.49 16.73 16.73v31.12h14.39V56.02c0-17.19-13.93-31.12-31.12-31.12" fill="#0014e6"/><path d="M483.32 56.02a8 8 0 1 1-16 0 8 8 0 1 1 16 0" fill="#1fb7f8"/><path d="M518.13 35.3c-.09-.19-.3-.3-.5-.3l-17.95 1.41 7.96-16.52c.09-.2.05-.43-.11-.58s-.4-.18-.59-.08l-17.1 9.25c-4.33-2.29-9.27-3.59-14.52-3.59-17.19 0-31.12 13.93-31.12 31.12s13.93 31.12 31.12 31.12 31.12-13.93 31.12-31.12c0-2.83-.38-5.57-1.09-8.17l12.66-11.98c.16-.15.2-.37.11-.57zm-42.8 37.45c-9.24 0-16.73-7.49-16.73-16.73s7.49-16.73 16.73-16.73 16.73 7.49 16.73 16.73-7.49 16.73-16.73 16.73z" fill="#0014e6"/></svg>